<svg xmlns="http://www.w3.org/2000/svg" xmlns:xlink="http://www.w3.org/1999/xlink" id="레이어_1" x="0" y="0" enable-background="new 0 0 80 30" version="1.1" viewBox="0 0 80 30" xml:space="preserve"><g><g><path d="M4.41,6.55H0.54v-1.9H9.9v1.9H6.03v15.72H4.41V6.55z"/><path d="M11.33,15.77c0-4.35,2.07-6.86,4.39-6.86s4.39,2.51,4.39,6.86c0,4.32-2.07,6.83-4.39,6.83S11.33,20.09,11.33,15.77z M18.45,15.77c0-2.99-1.1-5.02-2.73-5.02c-1.63,0-2.73,2.03-2.73,5.02s1.1,4.99,2.73,4.99C17.35,20.76,18.45,18.76,18.45,15.77z"/><path d="M22.59,9.23h1.32l0.14,1.51h0.05c0.86-0.98,1.92-1.83,3.02-1.83c2.45,0,3.75,2.62,3.75,6.65c0,4.45-1.94,7.04-4.1,7.04 c-0.87,0-1.75-0.55-2.62-1.51l0.04,2.28v4.42h-1.6V9.23z M29.22,15.57c0-2.88-0.71-4.81-2.49-4.81c-0.8,0-1.61,0.61-2.53,1.78 v6.84c0.86,0.99,1.68,1.36,2.3,1.36C28.06,20.74,29.22,18.79,29.22,15.57z"/><path d="M32.62,19.98l0.97-1.54c0.92,1.32,2.2,2.18,3.53,2.18c1.68,0,2.67-1.15,2.67-2.86c0-1.8-0.93-2.37-2.13-3.1l-1.84-1.12 c-1.19-0.7-2.59-1.95-2.59-4.54c0-2.69,1.7-4.68,4.02-4.68c1.51,0,2.87,0.9,3.76,2.18l-0.86,1.44c-0.78-1.02-1.72-1.65-2.9-1.65 c-1.43,0-2.38,1-2.38,2.57c0,1.7,1.11,2.33,2.12,2.92l1.82,1.09c1.48,0.88,2.63,2.09,2.63,4.71c0,2.78-1.67,5.01-4.35,5.01 C35.3,22.59,33.74,21.59,32.62,19.98z"/><path d="M43.09,15.77c0-4.25,2.08-6.86,4.25-6.86c2.41,0,3.78,2.39,3.78,6.12c0,0.47-0.03,0.93-0.07,1.25h-6.37 c0.12,2.76,1.34,4.56,3.14,4.56c0.91,0,1.65-0.4,2.36-1.04l0.57,1.45c-0.83,0.75-1.84,1.35-3.12,1.35 C45.1,22.59,43.09,20.05,43.09,15.77z M49.71,14.7c0-2.61-0.85-4.04-2.33-4.04c-1.33,0-2.52,1.47-2.71,4.04H49.71z"/><path d="M52.09,9.23h1.65l1.79,7.41c0.28,1.27,0.59,2.6,0.87,3.85h0.08c0.28-1.25,0.59-2.57,0.87-3.85l1.79-7.41h1.57l-3.35,13.05 h-1.86L52.09,9.23z"/><path d="M61.85,15.77c0-4.25,2.08-6.86,4.25-6.86c2.41,0,3.78,2.39,3.78,6.12c0,0.47-0.03,0.93-0.07,1.25h-6.37 c0.12,2.76,1.34,4.56,3.14,4.56c0.91,0,1.65-0.4,2.36-1.04l0.57,1.45c-0.83,0.75-1.84,1.35-3.12,1.35 C63.86,22.59,61.85,20.05,61.85,15.77z M68.46,14.7c0-2.61-0.85-4.04-2.33-4.04c-1.33,0-2.52,1.47-2.71,4.04H68.46z"/><path d="M72.21,9.23h1.32l0.13,1.88h0.05c0.9-1.22,1.88-2.2,3.17-2.2c1.99,0,2.89,1.77,2.89,5.1v8.27h-1.6v-7.98 c0-2.43-0.53-3.47-1.79-3.47c-0.97,0-1.64,0.68-2.59,2v9.45h-1.6V9.23z"/></g></g></svg>